HIERARCHY
ROOT root
{
	OFFSET 0.000000 0.000000 0.000000
	CHANNELS 6 Xposition Yposition Zposition Zrotation Yrotation Xrotation
	JOINT lhip
	{
		OFFSET 0.058581 -0.082280 -0.017664
		CHANNELS 3 Zrotation Yrotation Xrotation
		JOINT lknee
		{
			OFFSET 0.043451 -0.386469 0.008037
			CHANNELS 3 Zrotation Yrotation Xrotation
			JOINT lankle
			{
				OFFSET -0.014790 -0.426874 -0.037428
				CHANNELS 3 Zrotation Yrotation Xrotation
				JOINT ltoe
				{
					OFFSET 0.041054 -0.060286 0.122042
					CHANNELS 3 Zrotation Yrotation Xrotation
					End Site
					{
						OFFSET 0.000000 0.000000 0.000000
					}
				}
			}
		}
	}
	JOINT rhip
	{
		OFFSET -0.060310 -0.090513 -0.013543
		CHANNELS 3 Zrotation Yrotation Xrotation
		JOINT rknee
		{
			OFFSET -0.043257 -0.383688 -0.004843
			CHANNELS 3 Zrotation Yrotation Xrotation
			JOINT rankle
			{
				OFFSET 0.019056 -0.420046 -0.034562
				CHANNELS 3 Zrotation Yrotation Xrotation
				JOINT rtoe
				{
					OFFSET -0.034840 -0.062106 0.130323
					CHANNELS 3 Zrotation Yrotation Xrotation
					End Site
					{
						OFFSET 0.000000 0.000000 0.000000
					}
				}
			}
		}
	}
	JOINT lowerback
	{
		OFFSET 0.004439 0.124404 -0.038385
		CHANNELS 3 Zrotation Yrotation Xrotation
		JOINT upperback
		{
			OFFSET 0.004488 0.137956 0.026820
			CHANNELS 3 Zrotation Yrotation Xrotation
			JOINT chest
			{
				OFFSET -0.002265 0.056032 0.002855
				CHANNELS 3 Zrotation Yrotation Xrotation
				JOINT lowerneck
				{
					OFFSET -0.013390 0.211636 -0.033468
					CHANNELS 3 Zrotation Yrotation Xrotation
					JOINT upperneck
					{
						OFFSET 0.010113 0.088937 0.050410
						CHANNELS 3 Zrotation Yrotation Xrotation
						End Site
						{
							OFFSET 0.000000 0.000000 0.000000
						}
					}
				}
				JOINT lclavicle
				{
					OFFSET 0.071702 0.114000 -0.018898
					CHANNELS 3 Zrotation Yrotation Xrotation
					JOINT lshoulder
					{
						OFFSET 0.122921 0.045205 -0.019046
						CHANNELS 3 Zrotation Yrotation Xrotation
						JOINT lelbow
						{
							OFFSET 0.255332 -0.015649 -0.022946
							CHANNELS 3 Zrotation Yrotation Xrotation
							JOINT lwrist
							{
								OFFSET 0.265709 0.012698 -0.007375
								CHANNELS 3 Zrotation Yrotation Xrotation
								End Site
								{
									OFFSET 0.000000 0.000000 0.000000
								}
							}
						}
					}
				}
				JOINT rclavicle
				{
					OFFSET -0.082954 0.112472 -0.023707
					CHANNELS 3 Zrotation Yrotation Xrotation
					JOINT rshoulder
					{
						OFFSET -0.113228 0.046853 -0.008472
						CHANNELS 3 Zrotation Yrotation Xrotation
						JOINT relbow
						{
							OFFSET -0.260127 -0.014369 -0.031269
							CHANNELS 3 Zrotation Yrotation Xrotation
							JOINT rwrist
							{
								OFFSET -0.269108 0.006794 -0.006027
								CHANNELS 3 Zrotation Yrotation Xrotation
								End Site
								{
									OFFSET 0.000000 0.000000 0.000000
								}
							}
						}
					}
				}
			}
		}
	}
}
MOTION
Frames: 11
Frame Time: 0.033333
0.481819 0.939250 1.002524 87.426181 -1.719476 83.219913 3.104766 1.672234 -7.735112 -6.761417 7.175187 53.429035 -4.802362 9.100116 -6.422380 0.000000 -0.000000 0.000000 3.036207 1.797131 1.475164 -1.500392 5.543436 5.323724 -2.489215 -4.517585 -10.133392 0.000000 -0.000000 0.000000 0.328209 -0.715515 10.502848 4.629262 -6.150164 1.124454 -0.602422 -5.760993 2.797720 4.322652 -12.488537 3.103220 1.719044 -13.796065 14.853071 -20.731661 6.880649 3.850041 -43.695931 -8.851391 7.475944 62.636409 -80.920465 -48.465728 -0.987454 -15.285480 -27.105178 19.829674 -6.149475 -2.607389 53.460004 -5.659072 24.384320 141.111006 78.150765 164.988012 7.603941 15.531829 -24.177934 
0.512775 0.943215 1.005124 86.795661 -2.301152 82.525880 3.139420 0.442708 -9.086156 -5.500010 8.363205 49.476224 -4.098044 10.616243 -8.871683 0.000000 -0.000000 0.000000 2.083163 0.821420 4.625763 -1.543334 6.852907 4.661565 -1.292853 -4.689558 -12.079486 0.000000 -0.000000 0.000000 0.657350 -0.096583 12.082690 4.120213 -6.647159 -0.322044 -0.847749 -5.686942 2.259260 3.976210 -10.454840 3.675005 1.005144 -11.960239 16.541906 -19.815182 7.593347 2.696871 -40.612274 -8.699451 6.379790 98.146912 -79.663079 -85.178206 -0.953443 -16.432045 -30.571779 18.984867 -6.078111 -2.830867 54.098801 -5.837057 25.893291 148.053190 75.025613 171.074912 8.500877 16.759113 -24.839184 
0.539436 0.945948 1.005675 84.716362 -3.132946 82.467282 3.519712 0.126774 -10.400812 -5.730938 8.824678 42.960695 -3.833856 12.044546 -10.279117 0.000000 -0.000000 0.000000 1.032282 1.075304 5.936780 -1.597777 7.836884 5.633077 -1.111931 -4.036929 -13.803067 0.000000 -0.000000 0.000000 -0.176551 0.801551 11.694527 3.804534 -6.263872 0.556810 -0.799043 -4.921753 2.622289 3.581949 -8.918212 3.674882 1.456152 -11.670005 16.243679 -18.489135 6.594108 2.211341 -37.656990 -10.099193 4.321724 108.141195 -74.496331 -96.689988 0.966807 -15.830450 -31.799921 18.630200 -5.481688 -2.756792 55.259695 -6.085172 26.514421 155.911935 73.618095 178.967844 10.429166 16.690392 -24.140517 
0.565946 0.949921 1.005282 82.723378 -3.798193 82.783148 3.973291 -0.186658 -11.145318 -6.092073 8.021134 34.521482 -3.788685 13.085257 -10.194995 0.000000 -0.000000 0.000000 -0.015064 0.516622 6.974001 -1.745022 9.656550 6.087915 -0.817802 -3.900158 -15.145796 0.000000 -0.000000 0.000000 -0.768413 1.452869 12.113352 3.403835 -6.256901 -0.007734 -0.724313 -4.773079 2.703578 2.874777 -7.885627 3.450905 1.636128 -12.337233 16.665658 -16.953561 6.772738 1.208008 -34.569542 -11.014590 2.171516 106.229166 -70.215312 -96.069969 3.599442 -15.515693 -33.303851 18.295839 -5.551767 -3.151969 55.091866 -6.794712 27.076989 156.129028 73.387220 179.907834 11.581477 18.146401 -25.465411 
0.593703 0.955022 1.005145 81.721935 -3.947744 83.147219 4.339246 -0.501679 -11.329184 -5.716320 5.155786 25.071601 -4.086735 13.588413 -9.661748 0.000000 -0.000000 0.000000 -0.900931 0.154959 8.852206 -1.722492 10.725104 5.070110 -0.221525 -4.211291 -15.777278 0.000000 -0.000000 0.000000 -0.713551 1.445205 11.548629 3.000729 -6.850592 0.338871 -0.784363 -4.564764 2.947060 1.446463 -8.524652 3.436055 2.031647 -13.982532 15.391534 -15.923882 6.217826 0.482302 -31.041859 -11.344219 -0.153173 101.376889 -66.344257 -92.986222 8.353751 -13.745147 -33.500676 18.166769 -5.214445 -3.369419 54.223864 -7.339258 26.272180 149.277482 75.236194 172.678868 7.621899 16.822510 -24.103775 
0.620577 0.959599 1.003874 80.321128 -3.511783 83.955942 5.096697 0.360785 -11.742210 -3.974801 2.334401 15.887884 -4.484629 14.143870 -6.270711 0.000000 -0.000000 0.000000 -1.195035 -0.264306 9.938879 -1.620897 12.056928 4.269127 -0.273189 -4.607576 -15.711977 0.000000 -0.000000 0.000000 -0.557230 1.262780 10.947908 2.832186 -7.088830 0.536820 -0.480939 -4.329708 2.736544 0.206887 -10.189865 3.542395 2.359804 -16.253889 13.854387 -15.460618 5.611072 0.351689 -27.664602 -11.121213 -2.922701 96.829628 -62.967951 -87.943287 12.029583 -12.127853 -28.604439 18.030864 -4.748841 -3.338747 52.574273 -8.673614 24.632385 136.990800 77.253152 160.793240 3.211733 15.881732 -25.073669 
0.648433 0.965397 1.001467 78.689987 -3.082694 84.770354 5.835684 1.566281 -11.694681 -2.149761 0.988757 7.431778 -5.270462 13.690611 -3.222424 0.000000 -0.000000 0.000000 -1.818079 -1.054553 10.738112 -1.046380 11.761758 4.174596 -0.302119 -4.065899 -16.396676 0.000000 -0.000000 0.000000 -0.636659 1.150757 10.045525 2.807462 -7.203967 1.219412 -0.182756 -4.294691 2.409664 -0.567041 -12.135134 3.335342 2.644060 -19.035850 12.416503 -15.487578 5.556385 0.129387 -24.658383 -10.495406 -5.397956 95.294593 -60.225102 -84.593302 14.193363 -12.500425 -19.892121 18.783529 -4.037115 -2.746213 49.162441 -9.982870 23.556923 128.625584 78.474816 152.140722 -0.354453 15.260092 -23.567684 
0.678594 0.972246 0.999310 76.944111 -2.708956 84.961270 6.596035 2.521428 -10.744325 -1.289482 0.414797 1.263410 -6.134774 13.107503 -2.343152 0.000000 -0.000000 0.000000 -2.701061 -1.675581 12.593266 -0.810318 12.133535 3.496660 0.414953 -3.373023 -16.207099 0.000000 -0.000000 0.000000 -0.787216 1.027373 10.130547 2.826580 -7.308572 1.434960 0.309387 -4.372709 2.043893 -0.889745 -13.850087 2.921583 2.642382 -20.554094 11.018855 -16.037097 6.150928 -0.081272 -22.725481 -8.938850 -6.795149 99.581745 -58.695987 -87.492061 13.635436 -13.772083 -15.635374 18.689011 -4.378024 -2.604882 46.315108 -11.213107 22.038986 127.189070 77.260546 150.728069 0.168288 15.308168 -21.377650 
0.707096 0.980315 0.997226 74.900932 -2.451721 85.293546 7.035748 2.462378 -10.410097 -0.750256 1.013874 -0.992336 -6.471691 13.357277 -2.505200 0.000000 -0.000000 0.000000 -3.642611 -1.515254 13.349552 -0.870004 12.908675 3.971608 1.330197 -2.794418 -16.484362 0.000000 -0.000000 0.000000 -0.870626 1.269086 9.999297 2.690889 -7.163593 1.633115 0.295711 -4.358544 2.144183 -0.457080 -15.291424 2.534806 3.104610 -21.686185 9.731117 -15.795276 7.203575 -0.077118 -22.427935 -8.511820 -6.852998 106.654626 -58.000967 -93.450295 15.044756 -14.333509 -15.774890 18.082955 -4.983672 -3.003684 45.282200 -11.355609 22.131384 130.904276 75.623214 153.730107 -2.031585 15.456378 -22.638611 
0.737151 0.989928 0.995168 73.394965 -2.221609 85.808410 6.930165 2.256042 -10.994609 -0.895299 1.592002 0.755758 -6.294834 13.438242 -1.028363 0.000000 -0.000000 0.000000 -4.574785 -1.456692 13.392158 -1.255405 13.549061 5.525873 2.013476 -1.618251 -17.175761 0.000000 -0.000000 0.000000 -0.910548 1.269198 9.237310 2.651015 -7.245142 1.712973 0.028703 -4.504370 2.329139 -0.218803 -15.978900 2.724341 3.286484 -21.952467 9.467553 -15.569200 8.151099 -0.017268 -23.587019 -8.172803 -5.933041 115.086586 -57.062900 -99.987884 16.620555 -14.374111 -16.626235 17.286174 -5.310687 -3.549554 45.288198 -11.001879 22.504264 137.406778 73.334798 160.330556 -4.503242 15.864344 -24.626862 
0.767670 1.000550 0.994666 72.544361 -2.241078 85.785419 6.057453 1.550070 -11.375161 -1.343756 0.849423 4.984293 -4.610148 12.038827 0.646914 0.000000 -0.000000 0.000000 -5.548033 -0.988310 13.452819 -1.407696 14.158986 8.172910 2.503042 -1.564639 -16.280319 0.000000 -0.000000 0.000000 -1.159035 1.508174 8.109763 2.760794 -7.138897 2.668214 -0.617815 -4.754022 2.946139 0.626341 -16.665124 2.428308 3.473069 -21.850069 9.883471 -15.562405 8.064465 0.490735 -25.311221 -9.296691 -5.012551 122.155590 -56.284959 -105.086304 16.306655 -13.852584 -17.470348 17.382432 -5.419153 -3.771733 45.796737 -9.771283 22.977571 148.695677 71.297011 172.375411 -2.820995 16.025336 -25.326244 
